#define left_cir_width 11
#define left_cir_height 22
static unsigned char left_cir_bits[] = {
   0x00, 0x07, 0xc0, 0x07, 0xf0, 0x07, 0xf8, 0x07, 0xfc, 0x07, 0xfc, 0x07,
   0xfe, 0x07, 0xfe, 0x07, 0xff, 0x07, 0xff, 0x07, 0xff, 0x07, 0xff, 0x07,
   0xff, 0x07, 0xff, 0x07, 0xfe, 0x07, 0xfe, 0x07, 0xfc, 0x07, 0xfc, 0x07,
   0xf8, 0x07, 0xf0, 0x07, 0xc0, 0x07, 0x00, 0x07 };
