#define power_btn_width  22
#define power_btn_height 22
static unsigned char power_btn_bits[] = {
 0x00,0x00,0xc0,0x00,0x0c,0xc0,0x00,0x0c,0xc0,0x80,0x6d,0xc0,
 0xe0,0xed,0xc1,0x70,0x8c,0xc3,0x30,0x0c,0xc3,0x18,0x0c,0xc6,
 0x18,0x0c,0xc6,0x0c,0x0c,0xcc,0x0c,0x0c,0xcc,0x0c,0x0c,0xcc,
 0x0c,0x00,0xcc,0x18,0x00,0xc6,0x18,0x00,0xc6,0x30,0x00,0xc3,
 0x70,0x80,0xc3,0xe0,0xe1,0xc1,0x80,0x7f,0xc0,0x00,0x1e,0xc0,
 0x00,0x00,0xc0,0x00,0x00,0xc0};
