#define right_cir_width 11
#define right_cir_height 22
static unsigned char right_cir_bits[] = {
   0x07, 0x00, 0x1f, 0x00, 0x7f, 0x00, 0xff, 0x00, 0xff, 0x01, 0xff, 0x01,
   0xff, 0x03, 0xff, 0x03, 0xff, 0x07, 0xff, 0x07, 0xff, 0x07, 0xff, 0x07,
   0xff, 0x07, 0xff, 0x07, 0xff, 0x03, 0xff, 0x03, 0xff, 0x01, 0xff, 0x01,
   0xff, 0x00, 0x7f, 0x00, 0x1f, 0x00, 0x07, 0x00 };
