#define right_sep_width  22
#define right_sep_height 22
static unsigned char right_sep_bits[] = {
 0xff,0xff,0xff,0xff,0xff,0xdf,0xff,0xff,0xcf,0xff,0xff,0xc7,
 0xff,0xff,0xc3,0xff,0xff,0xc1,0xff,0xff,0xc0,0xff,0x7f,0xc0,
 0xff,0x3f,0xc0,0xff,0x1f,0xc0,0xff,0x0f,0xc0,0xff,0x07,0xc0,
 0xff,0x03,0xc0,0xff,0x01,0xc0,0xff,0x00,0xc0,0x7f,0x00,0xc0,
 0x3f,0x00,0xc0,0x1f,0x00,0xc0,0x0f,0x00,0xc0,0x07,0x00,0xc0,
 0x03,0x00,0xc0,0x01,0x00,0xc0};
