#define sep_int_width  11
#define sep_int_height 22
static unsigned char sep_int_bits[] = {
 0x20,0xf8,0x20,0xf8,0x20,0xf8,0x20,0xf8,0x20,0xf8,0x20,0xf8,
 0x20,0xf8,0x20,0xf8,0x20,0xf8,0x20,0xf8,0x20,0xf8,0x20,0xf8,
 0x20,0xf8,0x20,0xf8,0x20,0xf8,0x20,0xf8,0x20,0xf8,0x20,0xf8,
 0x20,0xf8,0x20,0xf8,0x20,0xf8,0x20,0xf8};
